<svg id="Layer_1" data-name="Layer 1" xmlns="http://www.w3.org/2000/svg" viewBox="0 0 300 300">
  <defs>
    <style>
      .cls-1 {
        fill: #007a48;
      }
    </style>
  </defs>
  <title>logo</title>
  <g>
    <path class="cls-1" d="M93.37,63.757l76.2,172.529-26.049.027L67.331,63.757Z"/>
    <path class="cls-1" d="M244.28,205.487V175.681c0-14.191-2.354-19.036-10-25.506v-.306c7.642-6.471,10-11.315,10-25.506V94.634h0V91.679c0-23.973-14.241-28-42.049-28v6.329c10.739,3.069,14.191,10.74,14.191,24.549v32.6c0,12.85-2.862,15.88-9.037,22.823l.035.04-.035.04c6.175,6.943,9.037,9.972,9.037,22.823v35.481c0,23.973,14.241,28,42.049,28v-6.329C247.732,226.967,244.28,219.3,244.28,205.487Z"/>
    <path class="cls-1" d="M83.578,127.159v-13.93L62.341,65.1a117.314,117.314,0,0,0-20.812-1.422v6.329C52.268,73.076,55.72,80.747,55.72,94.556v29.727c0,.027,0,.052,0,.079h0c0,14.191,2.354,19.035,10,25.506v.306c-7.642,6.471-10,11.315-10,25.506h0c0,.027,0,.052,0,.079v29.727c0,13.809-3.452,21.48-14.191,24.549v6.329c27.808,0,42.05-4.028,42.05-28V172.884c0-12.85,2.862-15.88,9.037-22.823l-.035-.04.035-.04C86.44,143.039,83.578,140.009,83.578,127.159Z"/>
    <path class="cls-1" d="M181.325,94.513c0-13.809,3.452-21.48,14.191-24.549V63.635c-27.808,0-42.049,4.028-42.049,28v35.48c0,12.85-2.862,15.88-9.037,22.823l.035.04-.035.04c6.175,6.943,9.037,9.973,9.037,22.823v14.29l21.065,47.735a116.33,116.33,0,0,0,20.984,1.456v-6.329c-10.739-3.069-14.191-10.74-14.191-24.549V175.717c0-.028,0-.052,0-.079h0c0-14.191-2.354-19.036-10-25.506v-.306c7.642-6.471,10-11.315,10-25.506h0c0-.027,0-.052,0-.079Z"/>
  </g>
</svg>
