<?xml version="1.0" encoding="utf-8"?>
<!-- Generator: Adobe Illustrator 21.0.2, SVG Export Plug-In . SVG Version: 6.00 Build 0)  -->
<svg version="1.1" id="Layer_1" xmlns:sketch="http://www.bohemiancoding.com/sketch/ns"
	 xmlns="http://www.w3.org/2000/svg" xmlns:xlink="http://www.w3.org/1999/xlink" x="0px" y="0px" viewBox="0 0 60 60"
	 style="enable-background:new 0 0 60 60;" xml:space="preserve">
<style type="text/css">
	.st0{fill:#CE6F2D;}
	.st1{fill:#FFFFFF;}
</style>
<title></title>
<g id="flat">
	<g id="stackoverflow">
		<path class="st0" d="M30,57.5c15.1,0,27.5-12.3,27.5-27.5S45.1,2.5,30,2.5S2.5,14.9,2.5,30S14.9,57.5,30,57.5z"/>
		<path class="st1" d="M36.3,31.8l-14.1-2.9l-0.7,3l16.2,3.4l0.6-2.5l0.8,0.4l1.4-3.2l-15.4-7.4l-1.4,3.2L36.3,31.8L36.3,31.8z
			 M42.6,33.2v9.5H17.4v-9.5h3.2v6.3h19v-6.3C39.5,33.2,42.6,33.2,42.6,33.2z M21.6,35.3h16.9v3.2H21.6V35.3z M42.6,27.2L40.5,30
			L26.8,19.4l1.5-2h1.5L42.6,27.2z"/>
	</g>
</g>
</svg>
